# xmcd
#
# Track frame offsets:
#	150
#	17760
#	27067
#	41717
#	63402
#	80832
#	96170
#	112895
#	129617
#	160585
#
# Disc length: 2328 seconds
#
# Revision: 0
# Processed by: cddbd v1.5.2PL0 Copyright (c) Steve Scherf et al.
# Submitted via: audiograbber 1.83.01
#
DISCID=7809160a
DTITLE=Various Artist - Forever Soul 3 (Sony Music SPECIAL EDITIONS)
DYEAR=1997
DGENRE=Soul
TTITLE0=Earth, Wind and Fire - After The Love Has Gone
TTITLE1=Bill Withers - Ain't No Sunshine
TTITLE2=People's Choice - Do It Anyway You Wanna
TTITLE3=Heatwave - Always and Forever
TTITLE4=Harold Melvin and The Blue Notes - Don't Leave Me This Way
TTITLE5=The Three Degrees - Get Your Love Back
TTITLE6=Gladys Knight and The Pips - Hero
TTITLE7=The O'Jays - For The Love Of Money
TTITLE8=Third World - Try Jah Love
TTITLE9=Tower Of Power - You Ought To Be Havin' Fun
EXTD=IDK 85168
EXTT0=
EXTT1=
EXTT2=
EXTT3=
EXTT4=
EXTT5=
EXTT6=
EXTT7=
EXTT8=
EXTT9=
PLAYORDER=
